<svg width="56" height="24" viewBox="0 0 56 24" fill="none" xmlns="http://www.w3.org/2000/svg">
<path d="M12.5 1C5.6167 1 0 6.16826 0 12.5C0 18.8326 5.61768 24 12.5 24C19.3833 24 25 18.8317 25 12.5C25 6.16736 19.3823 1 12.5 1ZM12.5 22.6523C6.41519 22.6523 1.46484 18.098 1.46484 12.5C1.46484 6.90197 6.41519 2.34766 12.5 2.34766C18.5848 2.34766 23.5352 6.90197 23.5352 12.5C23.5352 18.098 18.5848 22.6523 12.5 22.6523Z" fill="#222831"/>
<g clip-path="url(#clip0)">
<path d="M9.76562 2.48389C4.38805 2.48389 0 6.65184 0 11.7581C0 16.865 4.38881 21.0323 9.76562 21.0323C15.1432 21.0323 19.5312 16.8643 19.5312 11.7581C19.5312 6.65112 15.1424 2.48389 9.76562 2.48389ZM9.76562 19.9455C5.01186 19.9455 1.14441 16.2726 1.14441 11.7581C1.14441 7.24354 5.01186 3.57071 9.76562 3.57071C14.5194 3.57071 18.3868 7.24354 18.3868 11.7581C18.3868 16.2726 14.5194 19.9455 9.76562 19.9455Z" fill="#222831"/>
<ellipse cx="8.20312" cy="12.5001" rx="4.29688" ry="4.08065" fill="#00ADB5"/>
</g>
<path d="M36.5321 18L33.8761 13.44H32.1161V18H30.6601V6.848H34.2601C35.1028 6.848 35.8121 6.992 36.3881 7.28C36.9748 7.568 37.4121 7.95733 37.7001 8.448C37.9881 8.93867 38.1321 9.49867 38.1321 10.128C38.1321 10.896 37.9081 11.5733 37.4601 12.16C37.0228 12.7467 36.3615 13.136 35.4761 13.328L38.2761 18H36.5321ZM32.1161 12.272H34.2601C35.0495 12.272 35.6415 12.08 36.0361 11.696C36.4308 11.3013 36.6281 10.7787 36.6281 10.128C36.6281 9.46667 36.4308 8.95467 36.0361 8.592C35.6521 8.22933 35.0601 8.048 34.2601 8.048H32.1161V12.272ZM55.2105 6.848L51.9785 18H50.3465L47.7545 9.024L45.0665 18L43.4505 18.016L40.3305 6.848H41.8825L44.3145 16.304L47.0025 6.848H48.6345L51.1945 16.272L53.6425 6.848H55.2105Z" fill="#222831"/>
<defs>
<clipPath id="clip0">
<rect width="19.5312" height="18.5484" fill="white" transform="translate(0 2.48389)"/>
</clipPath>
</defs>
</svg>
